<?xml version="1.0" encoding="UTF-8" standalone="no"?>
<!DOCTYPE svg PUBLIC "-//W3C//DTD SVG 1.1//EN" "http://www.w3.org/Graphics/SVG/1.1/DTD/svg11.dtd">
<svg width="100%" height="100%" viewBox="0 0 32 32" version="1.1" xmlns="http://www.w3.org/2000/svg" xmlns:xlink="http://www.w3.org/1999/xlink" xml:space="preserve" xmlns:serif="http://www.serif.com/" style="fill-rule:evenodd;clip-rule:evenodd;stroke-linejoin:round;stroke-miterlimit:1.5;">
    <g id="Layer-1" serif:id="Layer 1" transform="matrix(0.454545,0,0,0.454545,4.63638,4.63636)">
        <g transform="matrix(2.93334,0,0,3.14286,-37.3334,-18.0571)">
            <path d="M19,6L19,13L20.514,11.587L22,13L22,6L19,6Z" style="fill:none;stroke:black;stroke-width:1.09px;"/>
        </g>
        <g transform="matrix(1.8,0,0,2.2,-3.80003,-10.2)">
            <path d="M27,5.9C27,5.403 26.507,5 25.9,5L6.1,5C5.493,5 5,5.403 5,5.9L5,26.1C5,26.597 5.493,27 6.1,27L25.9,27C26.507,27 27,26.597 27,26.1L27,5.9Z" style="fill:none;stroke:black;stroke-width:1.64px;"/>
        </g>
        <g transform="matrix(2.2,0,0,2.2,-10.2,-10.2)">
            <path d="M9.486,5L9.49,27" style="fill:none;stroke:black;stroke-width:1.5px;"/>
        </g>
    </g>
</svg>
