<?xml version="1.0" encoding="utf-8"?>
<!-- Generator: Adobe Illustrator 22.1.0, SVG Export Plug-In . SVG Version: 6.00 Build 0)  -->
<svg version="1.1" id="Layer_1" xmlns:serif="http://www.serif.com/"
	 xmlns="http://www.w3.org/2000/svg" xmlns:xlink="http://www.w3.org/1999/xlink" x="0px" y="0px" viewBox="0 0 1024 1024"
	 style="enable-background:new 0 0 1024 1024;" xml:space="preserve">
<style type="text/css">
	.st0{display:none;}
	.st1{display:inline;}
</style>
<g transform="matrix(0.478261,0,-1.00929e-16,0.478261,4.04209,4.04348)" class="st0">
	<g id="Layer-1" serif:id="Layer 1" class="st1">
		<path d="M1704.2,941.2L1582,910.3c-11.1-38-26.2-74.4-45.2-109l63.1-110c8.9-12.7,7.4-30-3.6-41l-124.4-124.4
			c-11.1-11.1-28.6-12.5-41.3-3.3l-107.7,64.1c-34.8-19.3-71.6-34.6-109.8-45.7l-33-121.4c-2.7-15.3-16-26.5-31.5-26.5h-176
			c-15.7,0-29.1,11.4-31.6,26.8l-30.6,120.4c-38.4,11-75.3,26.2-110,45.2l-107.3-63.1c-12.8-9.1-30.1-7.6-41.2,3.4L527.5,650.1
			c-11,11-12.5,28.3-3.6,41l61.5,108.3c-19.4,35-34.8,72.1-46,110.7l-119.7,31.1c-15.4,2.6-26.8,15.9-26.8,31.6v176
			c0,15.5,11.1,28.8,26.4,31.5l119.7,33.1c11.2,38.5,26.6,75.6,46,110.7l-62.8,106.7c-9.1,12.7-7.6,30.1,3.4,41.2L650,1596.5
			c11,11,28.3,12.5,41,3.6l108.5-61.9c35,19.2,71.9,34.5,110.2,45.6l31.2,120.6c2.5,15.4,15.9,26.7,31.5,26.7h176
			c15.5,0,28.8-11.1,31.5-26.4l33.4-121.6c38.4-11.3,75.1-26.7,109.8-45.9l109.7,62.8c12.7,9,30,7.4,41-3.6l124.4-124.5
			c11.1-11.1,12.5-28.6,3.3-41.3l-64.6-108.1c19-34.6,34-71.1,45-109.1l122.5-33.2c15.3-2.7,26.5-16,26.5-31.5v-176
			C1731.1,957.1,1719.7,943.7,1704.2,941.2z M1062,1419.9c-203.6,0-357.9-156.7-357.8-357.8c0-201.1,152.5-357.8,357.8-357.8
			s357.8,158.8,357.8,357.8S1265.6,1419.9,1062,1419.9z"/>
	</g>
</g>
<path d="M197.5,240.4l169.1,169.1c3.2,3.2,0.9,8.7-3.6,8.7h-74.1c-10.4,0-18.8,8.4-18.8,18.8v22.9c0,10.4,8.4,18.8,18.8,18.8h129.2
	h41.7c10.4,0,18.8-8.4,18.8-18.8v-41.7V289c0-10.4-8.4-18.8-18.8-18.8h-22.9c-10.4,0-18.8,8.4-18.8,18.8v74.1c0,4.5-5.5,6.8-8.7,3.6
	L240.3,197.6c-7.4-7.4-19.3-7.4-26.6,0l-16.2,16.2C190.2,221.2,190.2,233.1,197.5,240.4z"/>
<path d="M826.2,783.7L657.1,614.6c-3.2-3.2-0.9-8.7,3.6-8.7h74.1c10.4,0,18.8-8.4,18.8-18.8v-22.9c0-10.4-8.4-18.8-18.8-18.8H605.6
	H564c-10.4,0-18.8,8.4-18.8,18.8v41.7V735c0,10.4,8.4,18.8,18.8,18.8H587c10.4,0,18.8-8.4,18.8-18.8v-74.1c0-4.5,5.5-6.8,8.7-3.6
	l169.1,169c7.4,7.4,19.3,7.4,26.6,0l16.1-16.1C833.6,802.8,833.6,790.9,826.2,783.7z"/>
</svg>
