<?xml version="1.0" encoding="utf-8"?>
<!-- Generator: Adobe Illustrator 22.1.0, SVG Export Plug-In . SVG Version: 6.00 Build 0)  -->
<svg version="1.1" id="Layer_1" xmlns:serif="http://www.serif.com/"
	 xmlns="http://www.w3.org/2000/svg" xmlns:xlink="http://www.w3.org/1999/xlink" x="0px" y="0px" viewBox="0 0 1024 1024"
	 style="enable-background:new 0 0 1024 1024;" xml:space="preserve">
<path d="M473.1,430.4L304,261.3c-3.2-3.2-0.9-8.7,3.6-8.7h74.1c10.4,0,18.8-8.4,18.8-18.8v-22.9c0-10.4-8.4-18.8-18.8-18.8H252.5
	h-41.7c-10.4,0-18.8,8.4-18.8,18.8v41.7v129.2c0,10.4,8.4,18.8,18.8,18.8h22.9c10.4,0,18.8-8.4,18.8-18.8v-74.1
	c0-4.5,5.5-6.8,8.7-3.6l169.1,169.1c7.4,7.4,19.3,7.4,26.6,0l16.2-16.2C480.4,449.6,480.4,437.7,473.1,430.4z"/>
<path d="M550.8,593.6l169.1,169.1c3.2,3.2,0.9,8.7-3.6,8.7h-74.1c-10.4,0-18.8,8.4-18.8,18.8v22.9c0,10.4,8.4,18.8,18.8,18.8h129.2
	H813c10.4,0,18.8-8.4,18.8-18.8v-41.7V642.2c0-10.4-8.4-18.8-18.8-18.8h-22.9c-10.4,0-18.8,8.4-18.8,18.8v74.1
	c0,4.5-5.5,6.8-8.7,3.6l-169.1-169c-7.4-7.4-19.3-7.4-26.6,0L550.8,567C543.4,574.4,543.4,586.3,550.8,593.6z"/>
</svg>
