<?xml version="1.0" encoding="UTF-8" standalone="no"?>
<!DOCTYPE svg PUBLIC "-//W3C//DTD SVG 1.1//EN" "http://www.w3.org/Graphics/SVG/1.1/DTD/svg11.dtd">
<svg width="100%" height="100%" viewBox="0 0 32 32" version="1.1" xmlns="http://www.w3.org/2000/svg" xmlns:xlink="http://www.w3.org/1999/xlink" xml:space="preserve" xmlns:serif="http://www.serif.com/" style="fill-rule:evenodd;clip-rule:evenodd;stroke-linejoin:round;stroke-miterlimit:1.5;">
    <g id="Layer-1" serif:id="Layer 1" transform="matrix(0.454545,0,0,0.454545,4.63638,4.63636)">
        <g transform="matrix(2.2,0,0,2.2,-10.2,-10.2)">
            <path d="M16.142,5.001L16.284,5.004L16.425,5.008L16.566,5.014L16.706,5.022L16.846,5.032L16.985,5.044L17.124,5.057L17.262,5.072L17.4,5.088L17.537,5.107L17.674,5.127L17.81,5.149L17.946,5.172L18.081,5.197L18.216,5.224L18.35,5.252L18.483,5.282L18.616,5.313L18.748,5.347L18.879,5.381L19.01,5.418L19.14,5.455L19.27,5.495L19.398,5.536L19.526,5.578L19.654,5.622L19.781,5.668L19.907,5.715L20.032,5.764L20.156,5.814L20.28,5.865L20.403,5.918L20.525,5.972L20.647,6.028L20.767,6.085L20.887,6.144L21.006,6.204L21.124,6.266L21.241,6.328L21.358,6.393L21.474,6.458L21.588,6.525L21.702,6.593L21.815,6.663L21.927,6.734L22.038,6.806L22.148,6.88L22.258,6.955L22.366,7.031L22.473,7.108L22.58,7.187L22.685,7.266L22.79,7.347L22.893,7.43L22.995,7.513L23.097,7.598L23.197,7.684L23.296,7.771L23.395,7.859L23.492,7.948L23.588,8.039L23.683,8.131L23.777,8.223L23.869,8.317L23.961,8.412L24.052,8.508L24.141,8.605L24.229,8.704L24.316,8.803L24.402,8.903L24.487,9.005L24.57,9.107L24.653,9.21L24.734,9.315L24.813,9.42L24.892,9.527L24.969,9.634L25.045,9.742L25.12,9.852L25.194,9.962L25.266,10.073L25.337,10.185L25.407,10.298L25.475,10.412L25.542,10.526L25.607,10.642L25.672,10.759L25.734,10.876L25.796,10.994L25.856,11.113L25.915,11.233L25.972,11.353L26.028,11.475L26.082,11.597L26.135,11.72L26.186,11.844L26.236,11.968L26.285,12.093L26.332,12.219L26.378,12.346L26.422,12.474L26.464,12.602L26.505,12.73L26.545,12.86L26.582,12.99L26.619,13.121L26.653,13.252L26.687,13.384L26.718,13.517L26.748,13.65L26.776,13.784L26.803,13.919L26.828,14.054L26.851,14.19L26.873,14.326L26.893,14.463L26.912,14.6L26.928,14.738L26.943,14.876L26.956,15.015L26.968,15.154L26.978,15.294L26.986,15.434L26.992,15.575L26.996,15.716L26.999,15.858L27,16L26.999,16.142L26.996,16.284L26.992,16.425L26.986,16.566L26.978,16.706L26.968,16.846L26.956,16.985L26.943,17.124L26.928,17.262L26.912,17.4L26.893,17.537L26.873,17.674L26.851,17.81L26.828,17.946L26.803,18.081L26.776,18.216L26.748,18.35L26.718,18.483L26.687,18.616L26.653,18.748L26.619,18.879L26.582,19.01L26.545,19.14L26.505,19.27L26.464,19.398L26.422,19.526L26.378,19.654L26.332,19.781L26.285,19.907L26.236,20.032L26.186,20.156L26.135,20.28L26.082,20.403L26.028,20.525L25.972,20.647L25.915,20.767L25.856,20.887L25.796,21.006L25.734,21.124L25.672,21.241L25.607,21.358L25.542,21.474L25.475,21.588L25.407,21.702L25.337,21.815L25.266,21.927L25.194,22.038L25.12,22.148L25.045,22.258L24.969,22.366L24.892,22.473L24.813,22.58L24.734,22.685L24.653,22.79L24.57,22.893L24.487,22.995L24.402,23.097L24.316,23.197L24.229,23.296L24.141,23.395L24.052,23.492L23.961,23.588L23.869,23.683L23.777,23.777L23.683,23.869L23.588,23.961L23.492,24.052L23.395,24.141L23.296,24.229L23.197,24.316L23.097,24.402L22.995,24.487L22.893,24.57L22.79,24.653L22.685,24.734L22.58,24.813L22.473,24.892L22.366,24.969L22.258,25.045L22.148,25.12L22.038,25.194L21.927,25.266L21.815,25.337L21.702,25.407L21.588,25.475L21.474,25.542L21.358,25.607L21.241,25.672L21.124,25.734L21.006,25.796L20.887,25.856L20.767,25.915L20.647,25.972L20.525,26.028L20.403,26.082L20.28,26.135L20.156,26.186L20.032,26.236L19.907,26.285L19.781,26.332L19.654,26.378L19.526,26.422L19.398,26.464L19.27,26.505L19.14,26.545L19.01,26.582L18.879,26.619L18.748,26.653L18.616,26.687L18.483,26.718L18.35,26.748L18.216,26.776L18.081,26.803L17.946,26.828L17.81,26.851L17.674,26.873L17.537,26.893L17.4,26.912L17.262,26.928L17.124,26.943L16.985,26.956L16.846,26.968L16.706,26.978L16.566,26.986L16.425,26.992L16.284,26.996L16.142,26.999L16,27L15.858,26.999L15.716,26.996L15.575,26.992L15.434,26.986L15.294,26.978L15.154,26.968L15.015,26.956L14.876,26.943L14.738,26.928L14.6,26.912L14.463,26.893L14.326,26.873L14.19,26.851L14.054,26.828L13.919,26.803L13.784,26.776L13.65,26.748L13.517,26.718L13.384,26.687L13.252,26.653L13.121,26.619L12.99,26.582L12.86,26.545L12.73,26.505L12.602,26.464L12.474,26.422L12.346,26.378L12.219,26.332L12.093,26.285L11.968,26.236L11.844,26.186L11.72,26.135L11.597,26.082L11.475,26.028L11.353,25.972L11.233,25.915L11.113,25.856L10.994,25.796L10.876,25.734L10.759,25.672L10.642,25.607L10.526,25.542L10.412,25.475L10.298,25.407L10.185,25.337L10.073,25.266L9.962,25.194L9.852,25.12L9.742,25.045L9.634,24.969L9.527,24.892L9.42,24.813L9.315,24.734L9.21,24.653L9.107,24.57L9.005,24.487L8.903,24.402L8.803,24.316L8.704,24.229L8.605,24.141L8.508,24.052L8.412,23.961L8.317,23.869L8.223,23.777L8.131,23.683L8.039,23.588L7.948,23.492L7.859,23.395L7.771,23.296L7.684,23.197L7.598,23.097L7.513,22.995L7.43,22.893L7.347,22.79L7.266,22.685L7.187,22.58L7.108,22.473L7.031,22.366L6.955,22.258L6.88,22.148L6.806,22.038L6.734,21.927L6.663,21.815L6.593,21.702L6.525,21.588L6.458,21.474L6.393,21.358L6.328,21.241L6.266,21.124L6.204,21.006L6.144,20.887L6.085,20.767L6.028,20.647L5.972,20.525L5.918,20.403L5.865,20.28L5.814,20.156L5.764,20.032L5.715,19.907L5.668,19.781L5.622,19.654L5.578,19.526L5.536,19.398L5.495,19.27L5.455,19.14L5.418,19.01L5.381,18.879L5.347,18.748L5.313,18.616L5.282,18.483L5.252,18.35L5.224,18.216L5.197,18.081L5.172,17.946L5.149,17.81L5.127,17.674L5.107,17.537L5.088,17.4L5.072,17.262L5.057,17.124L5.044,16.985L5.032,16.846L5.022,16.706L5.014,16.566L5.008,16.425L5.004,16.284L5.001,16.142L5,16L5.001,15.858L5.004,15.716L5.008,15.575L5.014,15.434L5.022,15.294L5.032,15.154L5.044,15.015L5.057,14.876L5.072,14.738L5.088,14.6L5.107,14.463L5.127,14.326L5.149,14.19L5.172,14.054L5.197,13.919L5.224,13.784L5.252,13.65L5.282,13.517L5.313,13.384L5.347,13.252L5.381,13.121L5.418,12.99L5.455,12.86L5.495,12.73L5.536,12.602L5.578,12.474L5.622,12.346L5.668,12.219L5.715,12.093L5.764,11.968L5.814,11.844L5.865,11.72L5.918,11.597L5.972,11.475L6.028,11.353L6.085,11.233L6.144,11.113L6.204,10.994L6.266,10.876L6.328,10.759L6.393,10.642L6.458,10.526L6.525,10.412L6.593,10.298L6.663,10.185L6.734,10.073L6.806,9.962L6.88,9.852L6.955,9.742L7.031,9.634L7.108,9.527L7.187,9.42L7.266,9.315L7.347,9.21L7.43,9.107L7.513,9.005L7.598,8.903L7.684,8.803L7.771,8.704L7.859,8.605L7.948,8.508L8.039,8.412L8.131,8.317L8.223,8.223L8.317,8.131L8.412,8.039L8.508,7.948L8.605,7.859L8.704,7.771L8.803,7.684L8.903,7.598L9.005,7.513L9.107,7.43L9.21,7.347L9.315,7.266L9.42,7.187L9.527,7.108L9.634,7.031L9.742,6.955L9.852,6.88L9.962,6.806L10.073,6.734L10.185,6.663L10.298,6.593L10.412,6.525L10.526,6.458L10.642,6.393L10.759,6.328L10.876,6.266L10.994,6.204L11.113,6.144L11.233,6.085L11.353,6.028L11.475,5.972L11.597,5.918L11.72,5.865L11.844,5.814L11.968,5.764L12.093,5.715L12.219,5.668L12.346,5.622L12.474,5.578L12.602,5.536L12.73,5.495L12.86,5.455L12.99,5.418L13.121,5.381L13.252,5.347L13.384,5.313L13.517,5.282L13.65,5.252L13.784,5.224L13.919,5.197L14.054,5.172L14.19,5.149L14.326,5.127L14.463,5.107L14.6,5.088L14.738,5.072L14.876,5.057L15.015,5.044L15.154,5.032L15.294,5.022L15.434,5.014L15.575,5.008L15.716,5.004L15.858,5.001L16,5L16.142,5.001ZM15.877,6.501L15.754,6.503L15.632,6.507L15.51,6.512L15.389,6.519L15.268,6.528L15.148,6.538L15.028,6.549L14.908,6.562L14.789,6.576L14.671,6.592L14.553,6.61L14.435,6.628L14.318,6.649L14.201,6.67L14.085,6.693L13.97,6.718L13.855,6.743L13.74,6.771L13.626,6.799L13.513,6.829L13.4,6.86L13.288,6.893L13.176,6.927L13.065,6.962L12.955,6.999L12.845,7.037L12.736,7.076L12.627,7.117L12.519,7.159L12.411,7.202L12.305,7.246L12.199,7.292L12.093,7.339L11.988,7.387L11.884,7.437L11.781,7.487L11.678,7.539L11.576,7.592L11.475,7.646L11.374,7.702L11.274,7.758L11.175,7.816L11.077,7.875L10.98,7.935L10.883,7.997L10.787,8.059L10.692,8.123L10.597,8.187L10.504,8.253L10.411,8.32L10.319,8.388L10.228,8.457L10.137,8.527L10.048,8.598L9.96,8.67L9.872,8.743L9.785,8.817L9.699,8.893L9.614,8.969L9.53,9.046L9.447,9.125L9.365,9.204L9.284,9.284L9.204,9.365L9.125,9.447L9.046,9.53L8.969,9.614L8.893,9.699L8.817,9.785L8.743,9.872L8.67,9.96L8.598,10.048L8.527,10.137L8.457,10.228L8.388,10.319L8.32,10.411L8.253,10.504L8.187,10.597L8.123,10.692L8.059,10.787L7.997,10.883L7.935,10.98L7.875,11.077L7.816,11.175L7.758,11.274L7.702,11.374L7.646,11.475L7.592,11.576L7.539,11.678L7.487,11.781L7.437,11.884L7.387,11.988L7.339,12.093L7.292,12.199L7.246,12.305L7.202,12.411L7.159,12.519L7.117,12.627L7.076,12.736L7.037,12.845L6.999,12.955L6.962,13.065L6.927,13.176L6.893,13.288L6.86,13.4L6.829,13.513L6.799,13.626L6.771,13.74L6.743,13.855L6.718,13.97L6.693,14.085L6.67,14.201L6.649,14.318L6.628,14.435L6.61,14.553L6.592,14.671L6.576,14.789L6.562,14.908L6.549,15.028L6.538,15.148L6.528,15.268L6.519,15.389L6.512,15.51L6.507,15.632L6.503,15.754L6.501,15.877L6.5,16L6.501,16.123L6.503,16.246L6.507,16.368L6.512,16.49L6.519,16.611L6.528,16.732L6.538,16.852L6.549,16.972L6.562,17.092L6.576,17.211L6.592,17.329L6.61,17.447L6.628,17.565L6.649,17.682L6.67,17.799L6.693,17.915L6.718,18.03L6.743,18.145L6.771,18.26L6.799,18.374L6.829,18.487L6.86,18.6L6.893,18.712L6.927,18.824L6.962,18.935L6.999,19.045L7.037,19.155L7.076,19.264L7.117,19.373L7.159,19.481L7.202,19.589L7.246,19.695L7.292,19.801L7.339,19.907L7.387,20.012L7.437,20.116L7.487,20.219L7.539,20.322L7.592,20.424L7.646,20.525L7.702,20.626L7.758,20.726L7.816,20.825L7.875,20.923L7.935,21.02L7.997,21.117L8.059,21.213L8.123,21.308L8.187,21.403L8.253,21.496L8.32,21.589L8.388,21.681L8.457,21.772L8.527,21.863L8.598,21.952L8.67,22.04L8.743,22.128L8.817,22.215L8.893,22.301L8.969,22.386L9.046,22.47L9.125,22.553L9.204,22.635L9.284,22.716L9.365,22.796L9.447,22.875L9.53,22.954L9.614,23.031L9.699,23.107L9.785,23.183L9.872,23.257L9.96,23.33L10.048,23.402L10.137,23.473L10.228,23.543L10.319,23.612L10.411,23.68L10.504,23.747L10.597,23.813L10.692,23.877L10.787,23.941L10.883,24.003L10.98,24.065L11.077,24.125L11.175,24.184L11.274,24.242L11.374,24.298L11.475,24.354L11.576,24.408L11.678,24.461L11.781,24.513L11.884,24.563L11.988,24.613L12.093,24.661L12.199,24.708L12.305,24.754L12.411,24.798L12.519,24.841L12.627,24.883L12.736,24.924L12.845,24.963L12.955,25.001L13.065,25.038L13.176,25.073L13.288,25.107L13.4,25.14L13.513,25.171L13.626,25.201L13.74,25.229L13.855,25.257L13.97,25.282L14.085,25.307L14.201,25.33L14.318,25.351L14.435,25.372L14.553,25.39L14.671,25.408L14.789,25.424L14.908,25.438L15.028,25.451L15.148,25.462L15.268,25.472L15.389,25.481L15.51,25.488L15.632,25.493L15.754,25.497L15.877,25.499L16,25.5L16.123,25.499L16.246,25.497L16.368,25.493L16.49,25.488L16.611,25.481L16.732,25.472L16.852,25.462L16.972,25.451L17.092,25.438L17.211,25.424L17.329,25.408L17.447,25.39L17.565,25.372L17.682,25.351L17.799,25.33L17.915,25.307L18.03,25.282L18.145,25.257L18.26,25.229L18.374,25.201L18.487,25.171L18.6,25.14L18.712,25.107L18.824,25.073L18.935,25.038L19.045,25.001L19.155,24.963L19.264,24.924L19.373,24.883L19.481,24.841L19.589,24.798L19.695,24.754L19.801,24.708L19.907,24.661L20.012,24.613L20.116,24.563L20.219,24.513L20.322,24.461L20.424,24.408L20.525,24.354L20.626,24.298L20.726,24.242L20.825,24.184L20.923,24.125L21.02,24.065L21.117,24.003L21.213,23.941L21.308,23.877L21.403,23.813L21.496,23.747L21.589,23.68L21.681,23.612L21.772,23.543L21.863,23.473L21.952,23.402L22.04,23.33L22.128,23.257L22.215,23.183L22.301,23.107L22.386,23.031L22.47,22.954L22.553,22.875L22.635,22.796L22.716,22.716L22.796,22.635L22.875,22.553L22.954,22.47L23.031,22.386L23.107,22.301L23.183,22.215L23.257,22.128L23.33,22.04L23.402,21.952L23.473,21.863L23.543,21.772L23.612,21.681L23.68,21.589L23.747,21.496L23.813,21.403L23.877,21.308L23.941,21.213L24.003,21.117L24.065,21.02L24.125,20.923L24.184,20.825L24.242,20.726L24.298,20.626L24.354,20.525L24.408,20.424L24.461,20.322L24.513,20.219L24.563,20.116L24.613,20.012L24.661,19.907L24.708,19.801L24.754,19.695L24.798,19.589L24.841,19.481L24.883,19.373L24.924,19.264L24.963,19.155L25.001,19.045L25.038,18.935L25.073,18.824L25.107,18.712L25.14,18.6L25.171,18.487L25.201,18.374L25.229,18.26L25.257,18.145L25.282,18.03L25.307,17.915L25.33,17.799L25.351,17.682L25.372,17.565L25.39,17.447L25.408,17.329L25.424,17.211L25.438,17.092L25.451,16.972L25.462,16.852L25.472,16.732L25.481,16.611L25.488,16.49L25.493,16.368L25.497,16.246L25.499,16.123L25.5,16L25.499,15.877L25.497,15.754L25.493,15.632L25.488,15.51L25.481,15.389L25.472,15.268L25.462,15.148L25.451,15.028L25.438,14.908L25.424,14.789L25.408,14.671L25.39,14.553L25.372,14.435L25.351,14.318L25.33,14.201L25.307,14.085L25.282,13.97L25.257,13.855L25.229,13.74L25.201,13.626L25.171,13.513L25.14,13.4L25.107,13.288L25.073,13.176L25.038,13.065L25.001,12.955L24.963,12.845L24.924,12.736L24.883,12.627L24.841,12.519L24.798,12.411L24.754,12.305L24.708,12.199L24.661,12.093L24.613,11.988L24.563,11.884L24.513,11.781L24.461,11.678L24.408,11.576L24.354,11.475L24.298,11.374L24.242,11.274L24.184,11.175L24.125,11.077L24.065,10.98L24.003,10.883L23.941,10.787L23.877,10.692L23.813,10.597L23.747,10.504L23.68,10.411L23.612,10.319L23.543,10.228L23.473,10.137L23.402,10.048L23.33,9.96L23.257,9.872L23.183,9.785L23.107,9.699L23.031,9.614L22.954,9.53L22.875,9.447L22.796,9.365L22.716,9.284L22.635,9.204L22.553,9.125L22.47,9.046L22.386,8.969L22.301,8.893L22.215,8.817L22.128,8.743L22.04,8.67L21.952,8.598L21.863,8.527L21.772,8.457L21.681,8.388L21.589,8.32L21.496,8.253L21.403,8.187L21.308,8.123L21.213,8.059L21.117,7.997L21.02,7.935L20.923,7.875L20.825,7.816L20.726,7.758L20.626,7.702L20.525,7.646L20.424,7.592L20.322,7.539L20.219,7.487L20.116,7.437L20.012,7.387L19.907,7.339L19.801,7.292L19.695,7.246L19.589,7.202L19.481,7.159L19.373,7.117L19.264,7.076L19.155,7.037L19.045,6.999L18.935,6.962L18.824,6.927L18.712,6.893L18.6,6.86L18.487,6.829L18.374,6.799L18.26,6.771L18.145,6.743L18.03,6.718L17.915,6.693L17.799,6.67L17.682,6.649L17.565,6.628L17.447,6.61L17.329,6.592L17.211,6.576L17.092,6.562L16.972,6.549L16.852,6.538L16.732,6.528L16.611,6.519L16.49,6.512L16.368,6.507L16.246,6.503L16.123,6.501L16,6.5L15.877,6.501Z"/>
        </g>
        <g transform="matrix(2.2,0,0,2.56667,-10.2,-13.1333)">
            <path d="M16,8L16,14.857" style="fill:none;stroke:black;stroke-width:1.38px;"/>
        </g>
        <g transform="matrix(2.82846,0,0,2.60993,-18.6844,-18.8086)">
            <path d="M15.445,16.785L12.333,21" style="fill:none;stroke:black;stroke-width:1.21px;"/>
        </g>
        <g transform="matrix(3.3305,0,0,3.3305,-28.288,-28.2879)">
            <circle cx="16" cy="16" r="1"/>
        </g>
    </g>
</svg>
