<?xml version="1.0" encoding="UTF-8" standalone="no"?>
<!DOCTYPE svg PUBLIC "-//W3C//DTD SVG 1.1//EN" "http://www.w3.org/Graphics/SVG/1.1/DTD/svg11.dtd">
<svg width="100%" height="100%" viewBox="0 0 32 32" version="1.1" xmlns="http://www.w3.org/2000/svg" xmlns:xlink="http://www.w3.org/1999/xlink" xml:space="preserve" xmlns:serif="http://www.serif.com/" style="fill-rule:evenodd;clip-rule:evenodd;stroke-linejoin:round;stroke-miterlimit:1.41421;">
    <g transform="matrix(0.478261,0,-1.00929e-16,0.478261,4.04209,4.04348)">
        <g id="Layer-1" serif:id="Layer 1">
            <path d="M45.069,21.221L41.25,20.255C40.904,19.069 40.431,17.929 39.839,16.85L41.811,13.411C42.09,13.014 42.042,12.473 41.699,12.129L37.81,8.242C37.463,7.896 36.917,7.851 36.519,8.138L33.154,10.141C32.065,9.539 30.915,9.061 29.722,8.714L28.691,4.919C28.607,4.441 28.192,4.091 27.706,4.091L22.206,4.091C21.716,4.091 21.298,4.446 21.219,4.93L20.263,8.693C19.063,9.038 17.911,9.511 16.826,10.105L13.474,8.133C13.075,7.848 12.532,7.894 12.185,8.239L8.298,12.126C7.955,12.469 7.907,13.009 8.186,13.406L10.107,16.791C9.502,17.886 9.02,19.045 8.669,20.251L4.929,21.222C4.447,21.302 4.093,21.72 4.093,22.208L4.093,27.708C4.093,28.193 4.441,28.608 4.918,28.693L8.658,29.727C9.007,30.93 9.489,32.089 10.096,33.187L8.133,36.522C7.849,36.919 7.894,37.464 8.239,37.811L12.127,41.702C12.47,42.045 13.011,42.093 13.408,41.814L16.8,39.881C17.893,40.482 19.048,40.959 20.245,41.305L21.221,45.075C21.3,45.556 21.717,45.909 22.206,45.909L27.706,45.909C28.191,45.909 28.606,45.561 28.69,45.084L29.735,41.285C30.934,40.932 32.083,40.452 33.165,39.85L36.592,41.813C36.99,42.094 37.53,42.045 37.874,41.702L41.762,37.811C42.108,37.464 42.153,36.917 41.866,36.519L39.846,33.14C40.439,32.06 40.91,30.918 41.253,29.732L45.08,28.693C45.559,28.609 45.907,28.193 45.907,27.708L45.907,22.208C45.908,21.718 45.553,21.3 45.069,21.221ZM25,36.182C18.636,36.182 13.817,31.284 13.818,25C13.819,18.716 18.584,13.818 25,13.818C31.416,13.818 36.182,18.782 36.182,25C36.182,31.218 31.364,36.182 25,36.182Z" style="fill-rule:nonzero;"/>
        </g>
    </g>
</svg>
